<?xml version="1.0" encoding="UTF-8"?>
<svg xmlns="http://www.w3.org/2000/svg" xmlns:xlink="http://www.w3.org/1999/xlink" viewBox="0 0 32 32" width="32px" height="32px">
<g id="surface8041277">
<path style=" stroke:none;fill-rule:nonzero;fill:rgb(21.568628%,32.941177%,32.941177%);fill-opacity:1;" d="M 18 2 C 16.921875 2 15.898438 2.375 15.15625 3.09375 C 14.421875 3.804688 14 4.84375 14 6 L 14 8.09375 C 11.007812 8.265625 8.296875 9.1875 6.203125 10.671875 C 5.585938 10.296875 4.898438 10.070312 4.203125 10.023438 C 3.03125 9.945312 1.804688 10.296875 0.96875 11.226562 L 0.953125 11.25 L 0.9375 11.265625 C 0.164062 12.234375 -0.148438 13.539062 0.0625 14.828125 C 0.242188 15.96875 0.90625 17.085938 2.015625 17.867188 C 2.007812 17.921875 2 17.96875 2 18.015625 C 2 20.851562 3.539062 23.398438 5.898438 25.179688 C 8.257812 26.953125 11.460938 28.023438 15 28.023438 C 18.539062 28.023438 21.742188 26.953125 24.101562 25.179688 C 26.460938 23.398438 28 20.851562 28 18.015625 C 28 17.96875 27.992188 17.921875 27.992188 17.867188 C 29.09375 17.085938 29.757812 15.96875 29.9375 14.835938 C 30.148438 13.539062 29.835938 12.234375 29.0625 11.265625 L 29.039062 11.25 L 29.03125 11.226562 C 28.203125 10.296875 26.976562 9.945312 25.8125 10.015625 C 25.109375 10.0625 24.414062 10.296875 23.804688 10.671875 C 21.703125 9.1875 18.992188 8.265625 16 8.09375 L 16 6 C 16 5.3125 16.21875 4.851562 16.554688 4.53125 C 16.890625 4.203125 17.367188 4 18 4 C 18.46875 4 19.164062 4.375 20.242188 4.898438 C 21.320312 5.421875 22.78125 6 24.75 6 L 26 6 C 27.101562 6 28 5.101562 28 4 C 28 2.898438 27.101562 2 26 2 C 24.921875 2 24.039062 2.875 24.007812 3.953125 C 22.820312 3.84375 21.929688 3.5 21.117188 3.101562 C 20.140625 2.625 19.242188 2 18 2 Z M 15 10.015625 C 18.132812 10.015625 20.929688 10.976562 22.898438 12.460938 C 24.867188 13.945312 26 15.90625 26 18.015625 C 26 20.132812 24.867188 22.09375 22.898438 23.578125 C 20.929688 25.0625 18.132812 26.023438 15 26.023438 C 11.867188 26.023438 9.070312 25.0625 7.101562 23.578125 C 5.132812 22.09375 4 20.132812 4 18.015625 C 4 15.90625 5.132812 13.945312 7.101562 12.460938 C 9.070312 10.976562 11.867188 10.015625 15 10.015625 Z M 25.9375 12.015625 C 26.59375 11.976562 27.1875 12.203125 27.507812 12.546875 C 27.867188 13.007812 28.085938 13.78125 27.96875 14.515625 C 27.90625 14.875 27.78125 15.21875 27.578125 15.53125 C 27.164062 14.28125 26.453125 13.132812 25.507812 12.125 C 25.65625 12.09375 25.789062 12.023438 25.9375 12.015625 Z M 4.0625 12.015625 C 4.210938 12.03125 4.34375 12.09375 4.484375 12.132812 C 3.546875 13.132812 2.835938 14.28125 2.421875 15.53125 C 2.21875 15.21875 2.09375 14.875 2.03125 14.515625 C 1.914062 13.773438 2.132812 13.007812 2.492188 12.546875 C 2.8125 12.203125 3.40625 11.976562 4.0625 12.015625 Z M 10 14 C 8.898438 14 8 14.898438 8 16 C 8 17.101562 8.898438 18 10 18 C 11.101562 18 12 17.101562 12 16 C 12 14.898438 11.101562 14 10 14 Z M 20 14 C 18.898438 14 18 14.898438 18 16 C 18 17.101562 18.898438 18 20 18 C 21.101562 18 22 17.101562 22 16 C 22 14.898438 21.101562 14 20 14 Z M 10 20 C 10.570312 21.859375 12.710938 24 15 24 C 17.289062 24 19.429688 22 20 20 C 18.96875 21.140625 16.945312 22 15 22 C 13.054688 22 11.03125 21 10 20 Z M 10 20 "/>
</g>
</svg>
