<?xml version="1.0" encoding="UTF-8"?>
<svg xmlns="http://www.w3.org/2000/svg" xmlns:xlink="http://www.w3.org/1999/xlink" viewBox="0 0 40 40" width="40px" height="40px">
<g id="surface6308634">
<path style=" stroke:none;fill-rule:nonzero;fill:rgb(21.568628%,32.941177%,32.941177%);fill-opacity:1;" d="M 31.1875 21.769531 L 31.195312 21.769531 C 31.195312 21.769531 27.609375 27.027344 24.59375 30.9375 C 21.988281 34.316406 21.226562 37.207031 21.007812 38.605469 C 20.921875 39.121094 20.503906 39.5 20 39.5 C 19.496094 39.5 19.078125 39.121094 18.992188 38.605469 C 18.773438 37.207031 18.011719 34.316406 15.40625 30.9375 C 15.007812 30.414062 14.597656 29.875 14.1875 29.320312 L 24.03125 17.621094 L 31.957031 8.222656 C 32.832031 10.058594 33.316406 12.113281 33.316406 14.292969 C 33.316406 17.050781 32.527344 19.609375 31.1875 21.769531 Z M 31.1875 21.769531 "/>
<path style=" stroke:none;fill-rule:nonzero;fill:rgb(21.568628%,32.941177%,32.941177%);fill-opacity:1;" d="M 24.03125 17.621094 L 14.1875 29.320312 C 11.507812 25.726562 8.804688 21.769531 8.804688 21.769531 L 8.8125 21.769531 C 8.527344 21.3125 8.273438 20.847656 8.054688 20.359375 L 15.96875 10.964844 C 15.214844 11.867188 14.769531 13.027344 14.769531 14.292969 C 14.769531 17.183594 17.109375 19.523438 20 19.523438 C 21.628906 19.523438 23.082031 18.78125 24.03125 17.621094 Z M 24.03125 17.621094 "/>
<path style=" stroke:none;fill-rule:nonzero;fill:rgb(21.568628%,32.941177%,32.941177%);fill-opacity:1;" d="M 24.183594 1.203125 L 16.03125 10.886719 L 9.792969 5.445312 C 12.230469 2.421875 15.898438 0.5 20 0.5 C 21.464844 0.5 22.871094 0.746094 24.183594 1.203125 Z M 24.183594 1.203125 "/>
<path style=" stroke:none;fill-rule:nonzero;fill:rgb(21.568628%,32.941177%,32.941177%);fill-opacity:1;" d="M 16.03125 10.886719 L 15.964844 10.964844 L 8.050781 20.359375 C 7.175781 18.523438 6.683594 16.472656 6.683594 14.292969 C 6.683594 10.925781 7.851562 7.832031 9.792969 5.445312 Z M 16.03125 10.886719 "/>
<path style=" stroke:none;fill-rule:nonzero;fill:rgb(21.568628%,32.941177%,32.941177%);fill-opacity:1;" d="M 24.03125 17.621094 C 24.785156 16.71875 25.230469 15.558594 25.230469 14.292969 C 25.230469 11.402344 22.890625 9.0625 20 9.0625 C 18.371094 9.0625 16.917969 9.804688 15.96875 10.964844 L 24.1875 1.203125 C 27.601562 2.363281 30.398438 4.921875 31.957031 8.222656 Z M 24.03125 17.621094 "/>
<path style=" stroke:none;fill-rule:nonzero;fill:rgb(21.568628%,32.941177%,32.941177%);fill-opacity:1;" d="M 20 40 C 19.25 40 18.613281 39.449219 18.484375 38.6875 C 18.265625 37.316406 17.519531 34.53125 14.949219 31.246094 C 14.539062 30.722656 14.125 30.175781 13.707031 29.621094 C 11.015625 26.058594 8.265625 22.09375 8.238281 22.054688 L 7.785156 21.269531 C 7.65625 21.035156 7.539062 20.800781 7.433594 20.570312 C 6.484375 18.605469 6 16.488281 6 14.292969 C 6 10.941406 7.160156 7.6875 9.269531 5.128906 C 11.925781 1.871094 15.839844 0 20 0 C 21.511719 0 22.992188 0.246094 24.40625 0.730469 C 27.945312 1.917969 30.925781 4.570312 32.570312 8.007812 C 33.519531 9.96875 34 12.082031 34 14.292969 C 34 16.738281 33.386719 19.132812 32.214844 21.269531 L 32.292969 21.269531 L 31.761719 22.054688 C 31.726562 22.105469 28.082031 27.371094 25.050781 31.246094 C 22.480469 34.53125 21.734375 37.316406 21.515625 38.683594 C 21.386719 39.449219 20.75 40 20 40 Z M 9.179688 21.652344 C 9.726562 22.441406 12.140625 25.890625 14.507812 29.019531 C 14.921875 29.570312 15.335938 30.109375 15.738281 30.632812 C 18.445312 34.089844 19.238281 37.0625 19.472656 38.527344 C 19.519531 38.800781 19.738281 39 20 39 C 20.261719 39 20.480469 38.800781 20.527344 38.523438 C 20.761719 37.0625 21.554688 34.089844 24.265625 30.628906 C 27.003906 27.125 30.25 22.476562 30.84375 21.621094 L 30.917969 21.503906 C 32.28125 19.339844 33 16.847656 33 14.292969 C 33 12.234375 32.554688 10.265625 31.671875 8.441406 C 30.140625 5.246094 27.375 2.78125 24.085938 1.675781 C 22.773438 1.226562 21.398438 1 20 1 C 16.140625 1 12.511719 2.734375 10.039062 5.761719 C 8.078125 8.144531 7 11.171875 7 14.292969 C 7 16.335938 7.449219 18.304688 8.339844 20.144531 C 8.542969 20.59375 8.785156 21.035156 9.082031 21.503906 Z M 20 20 C 16.691406 20 14 17.308594 14 14 C 14 12.605469 14.488281 11.246094 15.375 10.179688 C 16.511719 8.796875 18.195312 8 20 8 C 23.308594 8 26 10.691406 26 14 C 26 15.394531 25.511719 16.753906 24.625 17.820312 C 23.488281 19.203125 21.804688 20 20 20 Z M 20 9 C 18.496094 9 17.09375 9.660156 16.148438 10.816406 C 15.40625 11.707031 15 12.835938 15 14 C 15 16.757812 17.242188 19 20 19 C 21.503906 19 22.90625 18.339844 23.851562 17.183594 C 24.59375 16.292969 25 15.164062 25 14 C 25 11.242188 22.757812 9 20 9 Z M 20 9 "/>
</g>
</svg>
